<svg xmlns="http://www.w3.org/2000/svg" viewBox="0 0 640 640">
  <rect width="640" height="640" rx="128" fill="#0a0a0a"/>
  <path fill="#8b5cf6" d="M64 160c0-35.3 28.7-64 64-64h384c35.3 0 64 28.7 64 64v240h-64V160H128v240H64V160Zm-64 307.2c0-10.6 8.6-19.2 19.2-19.2h601.6c10.6 0 19.2 8.6 19.2 19.2 0 42.4-34.4 76.8-76.8 76.8H76.8C34.4 544 0 509.6 0 467.2ZM281 273l-31 31 31 31c9.4 9.4 9.4 24.6 0 33.9-9.4 9.3-24.6 9.4-33.9 0l-48-48c-9.4-9.4-9.4-24.6 0-33.9l48-48c9.4-9.4 24.6-9.4 33.9 0 9.3 9.4 9.4 24.6 0 33.9Zm112-33.9 48 48c9.4 9.4 9.4 24.6 0 33.9l-48 48c-9.4 9.4-24.6 9.4-33.9 0-9.3-9.4-9.4-24.6 0-33.9l31-31-31-31c-9.4-9.4-9.4-24.6 0-33.9 9.4-9.3 24.6-9.4 33.9-.1Z"/>
</svg>
